<svg xmlns="http://www.w3.org/2000/svg" width="256" height="256" viewBox="0 0 256 256">
  <g id="icon_quicklook" transform="translate(-2433 -926)">
    <path id="Path_173" data-name="Path 173" d="M128-659a128.945,128.945,0,0,1-25.8-2.6,127.364,127.364,0,0,1-24.027-7.458,128.011,128.011,0,0,1-21.743-11.8A128.921,128.921,0,0,1,37.49-696.49a128.925,128.925,0,0,1-15.63-18.944,128.014,128.014,0,0,1-11.8-21.743A127.356,127.356,0,0,1,2.6-761.2,128.946,128.946,0,0,1,0-787a128.949,128.949,0,0,1,2.6-25.8,127.358,127.358,0,0,1,7.458-24.027,128.014,128.014,0,0,1,11.8-21.743A128.918,128.918,0,0,1,37.49-877.51a128.921,128.921,0,0,1,18.944-15.63,128.008,128.008,0,0,1,21.743-11.8A127.359,127.359,0,0,1,102.2-912.4,128.945,128.945,0,0,1,128-915a128.945,128.945,0,0,1,25.8,2.6,127.361,127.361,0,0,1,24.027,7.458,128.009,128.009,0,0,1,21.743,11.8,128.923,128.923,0,0,1,18.944,15.63,128.917,128.917,0,0,1,15.63,18.944,128.013,128.013,0,0,1,11.8,21.743A127.357,127.357,0,0,1,253.4-812.8,128.949,128.949,0,0,1,256-787a128.945,128.945,0,0,1-2.6,25.8,127.356,127.356,0,0,1-7.458,24.027,128.013,128.013,0,0,1-11.8,21.743,128.925,128.925,0,0,1-15.63,18.944,128.924,128.924,0,0,1-18.944,15.63,128.013,128.013,0,0,1-21.743,11.8A127.363,127.363,0,0,1,153.8-661.6,128.944,128.944,0,0,1,128-659Zm0-229a15.017,15.017,0,0,0-15,15v90a15.017,15.017,0,0,0,15,15h56a15.017,15.017,0,0,0,15-15,15.017,15.017,0,0,0-15-15H143v-75A15.017,15.017,0,0,0,128-888Z" transform="translate(2433 1841)" fill="#fff"/>
    <path id="Path_172" data-name="Path 172" d="M15-795A15,15,0,0,1,0-810v-90a15,15,0,0,1,15-15,15,15,0,0,1,15,15v75H71a15,15,0,0,1,15,15,15,15,0,0,1-15,15Z" transform="translate(2546 1868)" fill="rgba(255,255,255,0.2)"/>
  </g>
</svg>
