<svg xmlns="http://www.w3.org/2000/svg" width="256" height="256" viewBox="0 0 256 256">
  <g id="icon_library" transform="translate(-2433 -926)">
    <rect id="Rectangle_20" data-name="Rectangle 20" width="256" height="256" transform="translate(2433 926)" fill="rgba(0,0,0,0)"/>
    <rect id="Rectangle_21" data-name="Rectangle 21" width="256" height="180" rx="25" transform="translate(2433 964)" fill="rgba(255,255,255,0.2)"/>
    <g id="Rectangle_29" data-name="Rectangle 29" transform="translate(2433 964)" fill="none" stroke="#fff" stroke-width="15">
      <rect width="256" height="180" rx="25" stroke="none"/>
      <rect x="7.5" y="7.5" width="241" height="165" rx="17.5" fill="none"/>
    </g>
    <rect id="Rectangle_30" data-name="Rectangle 30" width="40" height="40" rx="11" transform="translate(2457 989)" fill="#fff"/>
    <rect id="Rectangle_31" data-name="Rectangle 31" width="40" height="40" rx="11" transform="translate(2512 989)" fill="#fff"/>
    <rect id="Rectangle_32" data-name="Rectangle 32" width="40" height="40" rx="11" transform="translate(2567 989)" fill="#fff"/>
    <rect id="Rectangle_33" data-name="Rectangle 33" width="40" height="40" rx="11" transform="translate(2622 989)" fill="#fff"/>
    <rect id="Rectangle_34" data-name="Rectangle 34" width="40" height="40" rx="11" transform="translate(2457 1034)" fill="#fff"/>
    <rect id="Rectangle_35" data-name="Rectangle 35" width="40" height="40" rx="11" transform="translate(2512 1034)" fill="#fff"/>
    <rect id="Rectangle_36" data-name="Rectangle 36" width="40" height="40" rx="11" transform="translate(2567 1034)" fill="#fff"/>
    <rect id="Rectangle_37" data-name="Rectangle 37" width="40" height="40" rx="11" transform="translate(2457 1079)" fill="#fff"/>
  </g>
</svg>
