<svg xmlns="http://www.w3.org/2000/svg" width="256" height="256" viewBox="0 0 256 256">
  <g id="icon_info" transform="translate(-2433 -926)">
    <path id="Path_175" data-name="Path 175" d="M128-1269a128.949,128.949,0,0,1-25.8-2.6,127.34,127.34,0,0,1-24.027-7.458,128,128,0,0,1-21.743-11.8,128.926,128.926,0,0,1-18.944-15.63,128.928,128.928,0,0,1-15.63-18.944,128.017,128.017,0,0,1-11.8-21.743A127.351,127.351,0,0,1,2.6-1371.2,128.948,128.948,0,0,1,0-1397a128.943,128.943,0,0,1,2.6-25.8,127.357,127.357,0,0,1,7.458-24.027,128.017,128.017,0,0,1,11.8-21.743,128.928,128.928,0,0,1,15.63-18.944,128.929,128.929,0,0,1,18.944-15.63,127.994,127.994,0,0,1,21.743-11.8A127.352,127.352,0,0,1,102.2-1522.4,128.949,128.949,0,0,1,128-1525a128.949,128.949,0,0,1,25.8,2.6,127.351,127.351,0,0,1,24.027,7.458,128,128,0,0,1,21.743,11.8,128.929,128.929,0,0,1,18.944,15.63,128.928,128.928,0,0,1,15.63,18.944,128.016,128.016,0,0,1,11.8,21.743A127.356,127.356,0,0,1,253.4-1422.8,128.943,128.943,0,0,1,256-1397a128.947,128.947,0,0,1-2.6,25.8,127.35,127.35,0,0,1-7.458,24.027,128.016,128.016,0,0,1-11.8,21.743,128.928,128.928,0,0,1-15.63,18.944,128.924,128.924,0,0,1-18.944,15.63,128,128,0,0,1-21.743,11.8A127.349,127.349,0,0,1,153.8-1271.6,128.949,128.949,0,0,1,128-1269Zm-6-161a9.01,9.01,0,0,0-9,9v91a9.01,9.01,0,0,0,9,9h12a9.01,9.01,0,0,0,9-9v-91a9.01,9.01,0,0,0-9-9Zm6-43a15.017,15.017,0,0,0-15,15,15.017,15.017,0,0,0,15,15,15.017,15.017,0,0,0,15-15A15.016,15.016,0,0,0,128-1473Z" transform="translate(2433 2451)" fill="#fff"/>
    <path id="Path_174" data-name="Path 174" d="M9-1373a9,9,0,0,1-9-9v-91a9,9,0,0,1,9-9H21a9,9,0,0,1,9,9v91a9,9,0,0,1-9,9ZM0-1510a15,15,0,0,1,15-15,15,15,0,0,1,15,15,15,15,0,0,1-15,15A15,15,0,0,1,0-1510Z" transform="translate(2546 2503)" fill="rgba(255,255,255,0.2)"/>
  </g>
</svg>
