<svg xmlns="http://www.w3.org/2000/svg" width="256" height="256" viewBox="0 0 256 256">
  <g id="icon_ai" transform="translate(-2433 -926)">
    <rect id="Rectangle_20" data-name="Rectangle 20" width="256" height="256" transform="translate(2433 926)" fill="rgba(0,0,0,0)"/>
    <g id="noun-ai-7865720" transform="translate(2433 929.123)">
      <path id="Path_182" data-name="Path 182" d="M52.333,134.352a4.466,4.466,0,0,1-8.385,0l-6.685-18.346a13.372,13.372,0,0,0-7.989-7.989l-18.346-6.685a4.466,4.466,0,0,1,0-8.385l18.346-6.685a13.372,13.372,0,0,0,7.989-7.989l6.685-18.346a4.466,4.466,0,0,1,8.385,0l6.685,18.346a13.372,13.372,0,0,0,7.989,7.989l18.346,6.685a4.466,4.466,0,0,1,0,8.385l-18.346,6.685a13.372,13.372,0,0,0-7.989,7.989Z" transform="translate(127.132 -57.001)" fill="#fff"/>
      <path id="Path_183" data-name="Path 183" d="M129.647,180.417a9.024,9.024,0,0,1-16.951,0l-13.512-37.1a27.089,27.089,0,0,0-16.159-16.147l-37.1-13.524a9.024,9.024,0,0,1,0-16.951l37.1-13.512A27.14,27.14,0,0,0,99.184,67.025l13.512-37.1a9.024,9.024,0,0,1,16.951,0l13.512,37.1a27.141,27.141,0,0,0,16.159,16.159l37.1,13.512a9.024,9.024,0,0,1,0,16.951l-37.1,13.524a27.089,27.089,0,0,0-16.159,16.147Z" transform="translate(-40 4.097)" fill="#fff"/>
      <path id="Path_184" data-name="Path 184" d="M73.779,116.291a6.412,6.412,0,0,1-12.049,0L52.108,89.9a19.289,19.289,0,0,0-11.5-11.5l-26.39-9.61a6.421,6.421,0,0,1,0-12.061l26.39-9.622a19.289,19.289,0,0,0,11.5-11.5L61.73,9.218a6.412,6.412,0,0,1,12.049,0L83.4,35.608a19.289,19.289,0,0,0,11.5,11.5l26.39,9.622a6.421,6.421,0,0,1,0,12.061L94.9,78.4A19.289,19.289,0,0,0,83.4,89.9Z" transform="translate(130.492 129.245)" fill="#fff"/>
    </g>
  </g>
</svg>
