<svg xmlns="http://www.w3.org/2000/svg" width="256" height="256" viewBox="0 0 256 256">
  <g id="icon_undo" transform="translate(-2433 -926)">
    <rect id="Rectangle_20" data-name="Rectangle 20" width="256" height="256" transform="translate(2433 926)" fill="rgba(0,0,0,0)"/>
    <g id="Group_16" data-name="Group 16" transform="translate(-0.196 -1.422)">
      <path id="Path_187" data-name="Path 187" d="M-714.7-164.6h-3.543A14.692,14.692,0,0,1-733-179.223a14.693,14.693,0,0,1,14.759-14.625h2.362v0c.183,0,.37,0,.59,0H-554.7A41.187,41.187,0,0,0-513.373-234.8a41.187,41.187,0,0,0-41.328-40.95H-715.289c-.2,0-.389,0-.59,0V-305H-554.7a70.972,70.972,0,0,1,27.577,5.517,70.659,70.659,0,0,1,22.52,15.045,69.936,69.936,0,0,1,15.183,22.315,69.213,69.213,0,0,1,5.568,27.325,69.222,69.222,0,0,1-5.568,27.326A69.96,69.96,0,0,1-504.6-185.159a70.677,70.677,0,0,1-22.52,15.045A70.972,70.972,0,0,1-554.7-164.6Z" transform="translate(3173.049 1302.597)" fill="rgba(255,255,255,0.6)"/>
      <path id="Path_188" data-name="Path 188" d="M30.7,5.914a9.329,9.329,0,0,1,17.362,0L78.069,81.021A9.438,9.438,0,0,1,69.388,94H9.37A9.438,9.438,0,0,1,.688,81.021Z" transform="translate(2433.196 1051.601) rotate(-90)" fill="#fff"/>
    </g>
  </g>
</svg>
