<svg xmlns="http://www.w3.org/2000/svg" width="256" height="256" viewBox="0 0 256 256">
  <g id="icon_redo" transform="translate(-2433 -926)">
    <rect id="Rectangle_20" data-name="Rectangle 20" width="256" height="256" transform="translate(2433 926)" fill="rgba(0,0,0,0)"/>
    <g id="Group_16" data-name="Group 16" transform="translate(2433 971.422)">
      <path id="Path_187" data-name="Path 187" d="M-502.155-164.6h3.543a14.692,14.692,0,0,0,14.759-14.625,14.693,14.693,0,0,0-14.759-14.625h-2.362v0c-.183,0-.37,0-.59,0H-662.152A41.187,41.187,0,0,1-703.479-234.8a41.187,41.187,0,0,1,41.328-40.95h160.588c.2,0,.389,0,.59,0V-305H-662.152a70.972,70.972,0,0,0-27.577,5.517,70.66,70.66,0,0,0-22.52,15.045,69.937,69.937,0,0,0-15.183,22.315A69.214,69.214,0,0,0-733-234.8a69.223,69.223,0,0,0,5.568,27.326,69.961,69.961,0,0,0,15.183,22.315,70.677,70.677,0,0,0,22.52,15.045,70.972,70.972,0,0,0,27.577,5.517Z" transform="translate(733 329.754)" fill="rgba(255,255,255,0.6)"/>
      <path id="Path_188" data-name="Path 188" d="M30.7,88.086a9.329,9.329,0,0,0,17.362,0L78.069,12.979A9.438,9.438,0,0,0,69.388,0H9.37A9.438,9.438,0,0,0,.688,12.979Z" transform="translate(162 78.757) rotate(-90)" fill="#fff"/>
    </g>
  </g>
</svg>
