<svg xmlns="http://www.w3.org/2000/svg" width="256" height="256" viewBox="0 0 256 256">
  <g id="icon_add" transform="translate(-2433 -926)">
    <path id="Path_177" data-name="Path 177" d="M-605,866a128.943,128.943,0,0,1-25.8-2.6,127.351,127.351,0,0,1-24.027-7.458,128.015,128.015,0,0,1-21.743-11.8,128.924,128.924,0,0,1-18.944-15.63,128.919,128.919,0,0,1-15.63-18.944,128.017,128.017,0,0,1-11.8-21.743A127.354,127.354,0,0,1-730.4,763.8,128.943,128.943,0,0,1-733,738a128.943,128.943,0,0,1,2.6-25.8,127.351,127.351,0,0,1,7.458-24.027,128.011,128.011,0,0,1,11.8-21.743,128.921,128.921,0,0,1,15.63-18.944,128.921,128.921,0,0,1,18.944-15.63,128.017,128.017,0,0,1,21.743-11.8A127.351,127.351,0,0,1-630.8,612.6,128.943,128.943,0,0,1-605,610a128.943,128.943,0,0,1,25.8,2.6,127.354,127.354,0,0,1,24.027,7.458,128.017,128.017,0,0,1,21.743,11.8,128.919,128.919,0,0,1,18.944,15.63,128.918,128.918,0,0,1,15.63,18.944,128.015,128.015,0,0,1,11.8,21.743A127.356,127.356,0,0,1-479.6,712.2,128.946,128.946,0,0,1-477,738a128.946,128.946,0,0,1-2.6,25.8,127.356,127.356,0,0,1-7.458,24.027,128.014,128.014,0,0,1-11.8,21.743,128.921,128.921,0,0,1-15.63,18.944,128.923,128.923,0,0,1-18.944,15.63,128.015,128.015,0,0,1-21.743,11.8A127.354,127.354,0,0,1-579.2,863.4,128.943,128.943,0,0,1-605,866Zm-65-143a15.017,15.017,0,0,0-15,15,15.016,15.016,0,0,0,15,15h50v50a15.017,15.017,0,0,0,15,15,15.017,15.017,0,0,0,15-15V753h50a15.016,15.016,0,0,0,15-15,15.017,15.017,0,0,0-15-15h-50V673a15.017,15.017,0,0,0-15-15,15.016,15.016,0,0,0-15,15v50Z" transform="translate(3166 316)" fill="#fff"/>
    <path id="Path_176" data-name="Path 176" d="M-668,755V705h-50a15,15,0,0,1-15-15,15,15,0,0,1,15-15h50V625a15,15,0,0,1,15-15,15,15,0,0,1,15,15v50h50a15,15,0,0,1,15,15,15,15,0,0,1-15,15h-50v50a15,15,0,0,1-15,15A15,15,0,0,1-668,755Z" transform="translate(3214 364)" fill="rgba(255,255,255,0.2)"/>
  </g>
</svg>
