<svg id="logo_doodle_duo256x58" xmlns="http://www.w3.org/2000/svg" width="189.483" height="62.286" viewBox="0 0 189.483 62.286">
  <path id="logo_doodle_fff256x58" d="M81.172,58.213l.859-10.859q-.278,0-.529-.009c-.167-.006-.325-.015-.472-.025s-.285-.023-.411-.036-.242-.028-.346-.042a1.276,1.276,0,0,1-.3-.072,1.443,1.443,0,0,1-.282-.142,1.722,1.722,0,0,1-.261-.208,2.092,2.092,0,0,1-.234-.269l-3.058-4.172a2.473,2.473,0,0,1-.2-.322,2.768,2.768,0,0,1-.155-.361,3.01,3.01,0,0,1-.108-.392,3.179,3.179,0,0,1-.056-.415q-.018-.217-.036-.481t-.032-.574q-.015-.309-.025-.662t-.014-.747L67.5,39.7a.681.681,0,0,1-.415-.07.929.929,0,0,1-.332-.3,1.346,1.346,0,0,1-.2-.466,1.634,1.634,0,0,1-.028-.571c.1-.849.271-1.979.545-3.245A28.857,28.857,0,0,1,68.24,31a18.035,18.035,0,0,1,2.036-3.966,10.277,10.277,0,0,1,3.116-3,7.3,7.3,0,0,1,1.371-.626,8.2,8.2,0,0,1,1.452-.344,9.877,9.877,0,0,1,1.5-.1,12.23,12.23,0,0,1,1.526.112q.324-.636.684-1.28t.759-1.294q.4-.65.837-1.306t.919-1.315A35.347,35.347,0,0,1,88.17,11.8a37.987,37.987,0,0,1,6.538-4.465,24.823,24.823,0,0,1,6.2-2.409,8.6,8.6,0,0,1,4.776.051.353.353,0,0,1,.107.063.466.466,0,0,1,.087.1.644.644,0,0,1,.065.131.846.846,0,0,1,.04.156,25.664,25.664,0,0,1-.078,6.919,58.635,58.635,0,0,1-1.8,8.635,68.225,68.225,0,0,1-3.217,8.938,45.723,45.723,0,0,1-4.324,7.8q-.464.659-.927,1.262t-.922,1.151q-.46.549-.914,1.044t-.9.942c.042.689.065,1.378.063,2.062s-.028,1.361-.082,2.027-.136,1.32-.251,1.957a15.762,15.762,0,0,1-.445,1.851,14.192,14.192,0,0,1-2.1,4.227,13.323,13.323,0,0,1-2.776,2.8,14.575,14.575,0,0,1-2.844,1.657,14.877,14.877,0,0,1-2.289.8l-.037.009-.037.007-.037,0-.037,0a.639.639,0,0,1-.353-.094.9.9,0,0,1-.283-.279,1.322,1.322,0,0,1-.179-.417A1.649,1.649,0,0,1,81.172,58.213Zm9.691-40.1a6.073,6.073,0,0,0-.888,1.858,7.79,7.79,0,0,0,0,4.256,6.231,6.231,0,0,0,.888,1.878,4.259,4.259,0,0,0,1.332,1.249,3.04,3.04,0,0,0,1.509.42,3.006,3.006,0,0,0,1.5-.406,4.16,4.16,0,0,0,1.318-1.228,6.1,6.1,0,0,0,.873-1.85,7.8,7.8,0,0,0,0-4.218,6.254,6.254,0,0,0-.873-1.869,4.8,4.8,0,0,0-.625-.731,3.852,3.852,0,0,0-.693-.527,3.232,3.232,0,0,0-.739-.322,2.915,2.915,0,0,0-.763-.117,2.885,2.885,0,0,0-.765.09,3.137,3.137,0,0,0-.744.3,3.7,3.7,0,0,0-.7.506A4.609,4.609,0,0,0,90.863,18.114ZM8.678,58.949a14.541,14.541,0,0,1-1.858-1.164,14.315,14.315,0,0,1-1.654-1.428,15.079,15.079,0,0,1-1.448-1.692,16.889,16.889,0,0,1-1.24-1.956A17.8,17.8,0,0,1,1.47,50.5a20.657,20.657,0,0,1-.749-2.437A24.822,24.822,0,0,1,.231,45.4Q.05,44.007,0,42.5l9.566-.118q.016.65.09,1.269a12.009,12.009,0,0,0,.205,1.2,10.928,10.928,0,0,0,.32,1.138,10.262,10.262,0,0,0,.434,1.072,9.231,9.231,0,0,0,.539.983,8.173,8.173,0,0,0,.632.87,7.585,7.585,0,0,0,.725.757,7.437,7.437,0,0,0,.818.644,6.182,6.182,0,0,0,.906.511,6.4,6.4,0,0,0,.989.357,7.172,7.172,0,0,0,1.072.2,8.543,8.543,0,0,0,1.154.05,8.859,8.859,0,0,0,1-.077,7.4,7.4,0,0,0,.922-.184,6.434,6.434,0,0,0,.848-.291,5.9,5.9,0,0,0,.774-.4,6.518,6.518,0,0,0,1.328-1.074,6.8,6.8,0,0,0,.555-.665A7.454,7.454,0,0,0,23.358,48a5.743,5.743,0,0,0,.382-.828,6.157,6.157,0,0,0,.255-.9,7.041,7.041,0,0,0,.127-.968,8.456,8.456,0,0,0,0-1.038,11.739,11.739,0,0,0-.058-1.186A9.208,9.208,0,0,0,23.892,42a7.41,7.41,0,0,0-.289-.978,6.23,6.23,0,0,0-.4-.874,8.193,8.193,0,0,0-1.1-1.521,8.579,8.579,0,0,0-.684-.668,9.272,9.272,0,0,0-.773-.606q-.409-.288-.851-.562t-.917-.537q-.475-.262-.983-.512t-1.05-.487l-1.1-.482-1.13-.5-1.162-.516-1.193-.533A25.929,25.929,0,0,1,9.7,32,21.166,21.166,0,0,1,7.45,30.587a17.86,17.86,0,0,1-1.93-1.614,15.842,15.842,0,0,1-1.609-1.81A12.132,12.132,0,0,1,2.65,25.1a13.877,13.877,0,0,1-.883-2.371,17.3,17.3,0,0,1-.5-2.678,22.7,22.7,0,0,1-.124-2.983A25.473,25.473,0,0,1,1.265,14.5a20.77,20.77,0,0,1,.376-2.375,17.394,17.394,0,0,1,.627-2.177,15.173,15.173,0,0,1,.876-1.977,14.9,14.9,0,0,1,1.1-1.762,13.469,13.469,0,0,1,1.3-1.53,12.964,12.964,0,0,1,1.49-1.3A13.351,13.351,0,0,1,8.711,2.311a14.286,14.286,0,0,1,1.836-.822A14.787,14.787,0,0,1,12.5.925,16.157,16.157,0,0,1,14.564.618,18.462,18.462,0,0,1,16.741.566a18.957,18.957,0,0,1,2.219.2,16.277,16.277,0,0,1,2.064.45,14.631,14.631,0,0,1,1.911.7,13.918,13.918,0,0,1,1.76.942,14.4,14.4,0,0,1,1.6,1.171A14.593,14.593,0,0,1,27.72,5.411a15.641,15.641,0,0,1,1.257,1.595,17.6,17.6,0,0,1,1.089,1.807,17,17,0,0,1,.886,1.99,18.562,18.562,0,0,1,.65,2.145,21.122,21.122,0,0,1,.415,2.3q.149,1.19.18,2.459l-9.159-.138q-.016-.476-.078-.94a9.1,9.1,0,0,0-.431-1.807,9.306,9.306,0,0,0-.354-.868,8.152,8.152,0,0,0-.438-.816,7.406,7.406,0,0,0-.514-.736,6.98,6.98,0,0,0-1.259-1.23,5.282,5.282,0,0,0-.743-.47,5.388,5.388,0,0,0-.817-.343,5.944,5.944,0,0,0-.892-.216,7,7,0,0,0-.966-.088,6.066,6.066,0,0,0-.8-.008,5.589,5.589,0,0,0-.769.1,5.441,5.441,0,0,0-.742.2,5.62,5.62,0,0,0-.714.307,5.149,5.149,0,0,0-.662.406,4.964,4.964,0,0,0-.586.5,5.136,5.136,0,0,0-.509.588,5.639,5.639,0,0,0-.775,1.451,6.735,6.735,0,0,0-.246.863,8.393,8.393,0,0,0-.147.954q-.049.5-.049,1.045a9.947,9.947,0,0,0,.049,1.007,7.964,7.964,0,0,0,.147.924,6.549,6.549,0,0,0,.246.842,5.626,5.626,0,0,0,.344.759,7.382,7.382,0,0,0,.432.693,7.565,7.565,0,0,0,.509.647,8.019,8.019,0,0,0,.586.6q.312.288.662.553t.737.519q.386.254.809.5t.88.476q.458.233.951.455t1,.447q.51.224,1.038.451t1.071.456q.544.229,1.1.46.849.377,1.657.787t1.576.851q.767.441,1.495.915t1.415.978a14.128,14.128,0,0,1,2.467,2.313,14.766,14.766,0,0,1,1.022,1.375,16.02,16.02,0,0,1,.883,1.521,12.13,12.13,0,0,1,.712,1.721,15.966,15.966,0,0,1,.507,1.976,21.509,21.509,0,0,1,.3,2.231q.1,1.179.1,2.487-.016,1.125-.136,2.21a21.182,21.182,0,0,1-.347,2.133,20.291,20.291,0,0,1-.558,2.057,20.12,20.12,0,0,1-.771,1.983,16.334,16.334,0,0,1-.983,1.858,15.385,15.385,0,0,1-2.612,3.192,16.27,16.27,0,0,1-1.632,1.335,13.018,13.018,0,0,1-1.85,1.1,14.151,14.151,0,0,1-2.065.815,16.5,16.5,0,0,1-2.283.525,20.259,20.259,0,0,1-2.5.233,20.635,20.635,0,0,1-2.395-.057,18.055,18.055,0,0,1-2.273-.333,16.494,16.494,0,0,1-2.149-.612A15.875,15.875,0,0,1,8.678,58.949Zm134.748-3.1a9.642,9.642,0,0,1-1.21-.036,8.374,8.374,0,0,1-1.142-.186A7.657,7.657,0,0,1,140,55.287a7.451,7.451,0,0,1-1-.489,5.659,5.659,0,0,1-.915-.667,6.491,6.491,0,0,1-.807-.87,8.134,8.134,0,0,1-.7-1.073,10.742,10.742,0,0,1-.591-1.277,12.15,12.15,0,0,1-.47-1.51,18,18,0,0,1-.336-1.772q-.134-.952-.2-2.035t-.067-2.3V27.8l-4.278-.018.049-8.226,4.229.062.733-9.973,5.815.231v9.838l6.3.092.047,8.049-6.345-.027v15.51q0,.61.045,1.126a7.668,7.668,0,0,0,.135.936,4.29,4.29,0,0,0,.225.745,2.367,2.367,0,0,0,.315.554,1.967,1.967,0,0,0,.423.4,2.331,2.331,0,0,0,.548.28,3.307,3.307,0,0,0,.673.161,5.082,5.082,0,0,0,.8.041l3.089-.065v8.192ZM111.7,56.854V19.282l6.173.09.663,6.884q.229-.608.488-1.169t.548-1.075q.289-.514.608-.981t.667-.887q.348-.42.722-.793t.771-.7a9.923,9.923,0,0,1,.819-.6,9.623,9.623,0,0,1,.868-.511,7.767,7.767,0,0,1,1.875-.687,8.24,8.24,0,0,1,1-.163,9.081,9.081,0,0,1,1.048-.043V29.089l-2.3-.006q-.376,0-.738.03t-.711.095q-.349.063-.684.159a6.9,6.9,0,0,0-.656.223,5.389,5.389,0,0,0-.623.3,5.453,5.453,0,0,0-.583.374,5.789,5.789,0,0,0-.542.453,6.406,6.406,0,0,0-.5.532,5.509,5.509,0,0,0-.453.625,6.883,6.883,0,0,0-.4.732,8.826,8.826,0,0,0-.34.838q-.156.446-.283.945t-.223,1.063q-.1.564-.159,1.193t-.1,1.322q-.032.693-.032,1.451V56.634ZM53.911,58.689a13.356,13.356,0,0,1-1.5-.035,11.509,11.509,0,0,1-1.42-.2,10.321,10.321,0,0,1-1.335-.372,9.735,9.735,0,0,1-1.248-.542,7.041,7.041,0,0,1-1.139-.74,7.6,7.6,0,0,1-1.006-.967,9.008,9.008,0,0,1-.871-1.2,11.407,11.407,0,0,1-.736-1.423,12.523,12.523,0,0,1-.586-1.684,18.218,18.218,0,0,1-.419-1.978q-.168-1.062-.251-2.271t-.084-2.563v-17.3l-5.336-.023.062-9.19,5.274.077.913-11.132,7.241.278V18.4l7.827.115.059,8.969-7.886-.033v17.3q0,.681.056,1.256a7.722,7.722,0,0,0,.168,1.043,4.411,4.411,0,0,0,.28.83,2.573,2.573,0,0,0,.392.617,2.352,2.352,0,0,0,.526.444,3.028,3.028,0,0,0,.682.311,4.5,4.5,0,0,0,.837.177,7.034,7.034,0,0,0,.991.044l3.837-.081V58.52ZM71.885,43.8a5.358,5.358,0,0,1,.591-.69,4.566,4.566,0,0,1,.65-.532,3.951,3.951,0,0,1,.692-.373,3.509,3.509,0,0,1,.715-.212.255.255,0,0,1,.207.051.421.421,0,0,1,.133.192.6.6,0,0,1,.031.262.538.538,0,0,1-.1.26l-.01.013a2.477,2.477,0,0,0-.276.5,4.942,4.942,0,0,0-.215.635c-.063.23-.117.478-.164.736s-.087.527-.121.8a4.86,4.86,0,0,0,.1,1.748,3.958,3.958,0,0,0,.642,1.408,2.612,2.612,0,0,0,1.031.859,1.914,1.914,0,0,0,1.266.1,5.881,5.881,0,0,0,.577-.181,4.1,4.1,0,0,0,.53-.24,2.839,2.839,0,0,0,.458-.309,2.076,2.076,0,0,0,.362-.387.3.3,0,0,1,.182-.136.249.249,0,0,1,.19.039.405.405,0,0,1,.145.178.6.6,0,0,1,.046.282,8.458,8.458,0,0,1-.144.978,7.853,7.853,0,0,1-.259.946,7.1,7.1,0,0,1-.375.894,6.36,6.36,0,0,1-.494.822,4.929,4.929,0,0,1-2.034,1.488,14.738,14.738,0,0,1-2.779.876c-.934.207-1.815.337-2.463.415s-1.063.1-1.063.1.011-.567.054-1.455.121-2.1.253-3.387a34.627,34.627,0,0,1,.587-3.849A8.243,8.243,0,0,1,71.885,43.8Z" transform="translate(41.679 0)" fill="rgba(255,255,255,0.8)"/>
  <path id="logo_doodle_fff256x58-2" data-name="logo_doodle_fff256x58" d="M13.38,44.265,0,0,10.3.151l8.959,32.892L27.986.41l9.58.14L24.933,43.9Z" transform="translate(0 17.035)" fill="rgba(255,255,255,0.3)"/>
</svg>
