<svg xmlns="http://www.w3.org/2000/svg" width="256" height="58" viewBox="0 0 256 58">
  <g id="logo_doodle_duo256x58" transform="translate(-325 -245.04)">
    <path id="logo_doodle_fff256x58" d="M154.093,78.682l1.226-11.071c-1.06-.014-1.914-.083-2.507-.15a2.508,2.508,0,0,1-1.528-.725l-4.324-4.292a2.477,2.477,0,0,1-.731-1.518,24.6,24.6,0,0,1-.151-2.5l-11.169,1.217a1.229,1.229,0,0,1-1.349-1.422c.564-3.4,2.589-11.332,9.544-14.367a17.089,17.089,0,0,1,8.249-1.025,40.4,40.4,0,0,1,4.558-5.345c9.379-9.309,26.69-15.788,34.182-13.969a.6.6,0,0,1,.454.464c1.8,7.805-4.682,24.6-14.1,33.9a40.506,40.506,0,0,1-5.4,4.525A16.79,16.79,0,0,1,170,70.563c-3.043,6.9-11.045,8.912-14.474,9.459a1.332,1.332,0,0,1-.212.018A1.23,1.23,0,0,1,154.093,78.682Zm13.979-41.1a5.8,5.8,0,0,0,0,8.256,5.909,5.909,0,0,0,8.318,0,5.8,5.8,0,0,0,0-8.256,5.907,5.907,0,0,0-8.318,0ZM58.943,77.178a16.954,16.954,0,0,1-7.442-6,17.9,17.9,0,0,1-2.945-9.559H60.017A8.969,8.969,0,0,0,61.29,66.04a8.54,8.54,0,0,0,3.3,3.12,11.836,11.836,0,0,0,9.432.316,7.39,7.39,0,0,0,2.945-2.331,5.1,5.1,0,0,0,.954-3.555,6.514,6.514,0,0,0-1.154-3.949,9.45,9.45,0,0,0-3.183-2.686,30.147,30.147,0,0,0-4.7-2.015q-2.666-.908-5.61-1.936-6.607-2.133-10.069-5.688a12.382,12.382,0,0,1-3.3-9.4A14.937,14.937,0,0,1,52.3,29.387a15.227,15.227,0,0,1,6.686-5.451,24.03,24.03,0,0,1,9.789-1.9,23.464,23.464,0,0,1,9.869,1.936,16.472,16.472,0,0,1,6.766,5.569,15.4,15.4,0,0,1,2.706,8.532H76.572A7.057,7.057,0,0,0,75.5,34.64a7.445,7.445,0,0,0-2.746-2.607,8.465,8.465,0,0,0-4.218-.987,8.645,8.645,0,0,0-3.7.632,5.578,5.578,0,0,0-3.621,5.53,5.58,5.58,0,0,0,.954,3.318,8.278,8.278,0,0,0,2.666,2.33,23.606,23.606,0,0,0,4.138,1.817q2.428.829,5.213,1.7a45.5,45.5,0,0,1,7.681,3.357A15.849,15.849,0,0,1,87.4,54.744a14.355,14.355,0,0,1,2.069,8.136,15.952,15.952,0,0,1-2.308,8.058,16.248,16.248,0,0,1-6.605,6,23.159,23.159,0,0,1-10.824,2.29A26.861,26.861,0,0,1,58.943,77.178Zm191.016,1.106a19.2,19.2,0,0,1-7.322-1.3,9.876,9.876,0,0,1-4.934-4.345A16.739,16.739,0,0,1,235.95,64.3V47.4h-6.924l.08-8.926h6.844l1.194-10.9,9.551.079V38.471H257.2l.08,8.926H246.695V64.46q0,2.686,1.194,3.713a6.258,6.258,0,0,0,4.06,1.027h5.174v9.084Zm-50.7,0V38.471h9.551l1.035,7.346a15.177,15.177,0,0,1,3.621-4.423,16.709,16.709,0,0,1,5.014-2.844,18.164,18.164,0,0,1,6.248-1.027v11.3h-3.661a16.788,16.788,0,0,0-4.417.553,9.541,9.541,0,0,0-3.542,1.777,7.642,7.642,0,0,0-2.308,3.358,15.539,15.539,0,0,0-.8,5.372V78.285Zm-82.813,0a19.2,19.2,0,0,1-7.322-1.3,9.876,9.876,0,0,1-4.934-4.345,16.739,16.739,0,0,1-1.751-8.334V47.4H95.514l.08-8.926h6.844l1.194-10.9,9.551.079V38.471h10.506l.08,8.926H113.183V64.46q0,2.686,1.194,3.713a6.258,6.258,0,0,0,4.06,1.027h5.173v9.084ZM141,63.824a6.353,6.353,0,0,1,3.7-1.791.457.457,0,0,1,.386.779l-.014.013a5.071,5.071,0,0,0-1.088,2.693,3.694,3.694,0,0,0,4.269,4.238,5.252,5.252,0,0,0,2.727-1.094.471.471,0,0,1,.8.383,6.226,6.226,0,0,1-1.8,3.677c-2.479,2.461-11.693,2.693-11.693,2.693S138.517,66.285,141,63.824Z" transform="translate(323.72 223)" fill="rgba(255,255,255,0.8)"/>
    <path id="logo_doodle_fff256x58-2" data-name="logo_doodle_fff256x58" d="M16,78.285,1.28,38.471h11.3L22.61,68.252l9.95-29.781H43.7L29.056,78.285Z" transform="translate(323.72 223)" fill="rgba(255,255,255,0.3)"/>
  </g>
</svg>
