<svg id="logo_doodle_duo256x58" xmlns="http://www.w3.org/2000/svg" width="106.398" height="63.889" viewBox="0 0 106.398 63.889">
  <path id="logo_doodle_fff256x58" d="M45.982,58.825l.471-10.788c-.1,0-.2,0-.29-.006s-.178-.013-.259-.022-.156-.021-.225-.033-.133-.026-.19-.04a.458.458,0,0,1-.164-.069.759.759,0,0,1-.155-.14,1.329,1.329,0,0,1-.143-.205,2.177,2.177,0,0,1-.128-.266l-1.682-4.132a3.2,3.2,0,0,1-.11-.32c-.033-.113-.061-.233-.086-.358s-.044-.255-.059-.389-.026-.272-.031-.413-.013-.3-.02-.479-.012-.366-.018-.571-.01-.425-.014-.659-.006-.482-.008-.743l-4.429,1.3a.239.239,0,0,1-.23-.068.8.8,0,0,1-.184-.3,2.007,2.007,0,0,1-.113-.465,2.913,2.913,0,0,1-.015-.571c.057-.848.15-1.977.3-3.241s.362-2.66.652-4.044a25.565,25.565,0,0,1,1.127-3.955A9.348,9.348,0,0,1,41.7,24.869a3.626,3.626,0,0,1,.756-.619,2.958,2.958,0,0,1,.8-.338,3.053,3.053,0,0,1,.827-.093,3.8,3.8,0,0,1,.839.116q.178-.631.376-1.269t.417-1.283q.219-.644.459-1.293t.5-1.3a34.558,34.558,0,0,1,3.13-6,25.294,25.294,0,0,1,3.557-4.361,10.693,10.693,0,0,1,3.356-2.316,2.663,2.663,0,0,1,2.574.1.217.217,0,0,1,.058.063.5.5,0,0,1,.047.1.936.936,0,0,1,.035.13,1.43,1.43,0,0,1,.022.154,45.99,45.99,0,0,1-.042,6.8c-.178,2.625-.512,5.532-.971,8.485S57.4,27.913,56.71,30.736a62.732,62.732,0,0,1-2.339,7.7q-.252.652-.5,1.248t-.5,1.139q-.249.544-.5,1.035t-.49.935c.023.681.035,1.362.034,2.037s-.015,1.345-.044,2-.074,1.306-.136,1.936-.142,1.243-.242,1.833a20.508,20.508,0,0,1-1.142,4.2,12.885,12.885,0,0,1-1.513,2.8,8.937,8.937,0,0,1-1.554,1.672,6.408,6.408,0,0,1-1.253.816l-.021.009-.02.007-.02,0-.02,0a.24.24,0,0,1-.194-.09.817.817,0,0,1-.155-.274,1.964,1.964,0,0,1-.1-.412A2.924,2.924,0,0,1,45.982,58.825Zm5.294-39.77a8.761,8.761,0,0,0-.483,1.834,13.387,13.387,0,0,0-.161,2.1,13.552,13.552,0,0,0,.161,2.11,9.112,9.112,0,0,0,.483,1.86A3.788,3.788,0,0,0,52,28.2a1.166,1.166,0,0,0,.82.417,1.134,1.134,0,0,0,.816-.4,3.646,3.646,0,0,0,.715-1.21,8.873,8.873,0,0,0,.473-1.824,13.415,13.415,0,0,0,.157-2.077,13.571,13.571,0,0,0-.157-2.085,9.21,9.21,0,0,0-.473-1.848,5.156,5.156,0,0,0-.339-.725,2.914,2.914,0,0,0-.376-.524,1.567,1.567,0,0,0-.4-.322.954.954,0,0,0-.414-.12.9.9,0,0,0-.416.084,1.4,1.4,0,0,0-.4.29,2.608,2.608,0,0,0-.38.5A4.725,4.725,0,0,0,51.276,19.055ZM5.06,60.366A9.362,9.362,0,0,1,3.979,59.2a12.02,12.02,0,0,1-.963-1.443,16.02,16.02,0,0,1-.844-1.718q-.392-.928-.724-1.993T.86,51.791Q.6,50.6.422,49.3T.135,46.565Q.029,45.139,0,43.6l5.576-.166q.01.664.052,1.3t.119,1.229q.076.6.186,1.161t.252,1.093q.143.529.313,1t.367.884a7.449,7.449,0,0,0,.42.768,5.819,5.819,0,0,0,.473.651,3.681,3.681,0,0,0,.524.514,2.859,2.859,0,0,0,.572.356,2.585,2.585,0,0,0,.619.2,2.809,2.809,0,0,0,.666.041,2.972,2.972,0,0,0,.575-.087,2.757,2.757,0,0,0,.531-.195,2.9,2.9,0,0,0,.488-.3,3.406,3.406,0,0,0,.445-.411,4.86,4.86,0,0,0,.4-.508,6,6,0,0,0,.361-.594q.17-.319.319-.68t.277-.767a8.593,8.593,0,0,0,.219-.844q.091-.439.146-.914t.073-.984q.018-.51,0-1.054,0-.629-.033-1.2t-.1-1.1q-.066-.523-.166-.992t-.232-.887q-.133-.417-.291-.8t-.342-.74q-.184-.354-.393-.677a7.287,7.287,0,0,0-.445-.614q-.235-.292-.49-.57t-.528-.544q-.274-.266-.567-.519t-.606-.494l-.635-.489L8.5,35.139l-.672-.525-.691-.543a14,14,0,0,1-2.789-2.7,15.019,15.019,0,0,1-1.123-1.652,16.771,16.771,0,0,1-.938-1.855,16.11,16.11,0,0,1-.735-2.115,21.968,21.968,0,0,1-.516-2.433q-.2-1.3-.294-2.748T.667,17.515q0-1.368.073-2.636t.22-2.432q.147-1.164.366-2.226T1.838,8.2q.292-.956.641-1.793a14.4,14.4,0,0,1,.755-1.553A10.961,10.961,0,0,1,4.1,3.546a8.674,8.674,0,0,1,.978-1.072,7.179,7.179,0,0,1,1.066-.818A5.952,5.952,0,0,1,7.277,1.1a5.6,5.6,0,0,1,1.2-.287A6.056,6.056,0,0,1,9.73.792a6.436,6.436,0,0,1,1.28.234A6.235,6.235,0,0,1,12.2,1.51a6.846,6.846,0,0,1,1.1.732,8.339,8.339,0,0,1,1.01.978,11.058,11.058,0,0,1,.916,1.207,14.029,14.029,0,0,1,.817,1.418q.384.761.719,1.63t.622,1.841q.287.973.506,2.024t.371,2.178q.152,1.127.236,2.333t.1,2.491l-5.241-.191q-.009-.484-.045-.955t-.1-.931q-.062-.46-.15-.908t-.2-.884q-.115-.437-.252-.833t-.3-.752a7.428,7.428,0,0,0-.34-.671,6.081,6.081,0,0,0-.385-.59,3.581,3.581,0,0,0-.428-.485,2.719,2.719,0,0,0-.471-.356,2.335,2.335,0,0,0-.514-.227,2.371,2.371,0,0,0-.558-.1,1.993,1.993,0,0,0-.459-.015,1.909,1.909,0,0,0-.444.092,2.154,2.154,0,0,0-.429.2,2.769,2.769,0,0,0-.413.307,3.274,3.274,0,0,0-.383.409,4.126,4.126,0,0,0-.339.5,5.429,5.429,0,0,0-.295.6,7.275,7.275,0,0,0-.25.691q-.114.369-.2.785t-.142.879q-.057.463-.086.973t-.029,1.067q0,.535.029,1.029t.086.945q.057.451.142.861t.2.777q.114.367.25.71t.295.662q.159.319.339.614t.383.566q.2.271.426.532t.468.51q.244.249.509.488t.549.467q.285.228.579.458t.6.462q.3.232.617.466t.636.47q.488.385.953.8t.9.867q.44.449.857.931t.81.994a11.756,11.756,0,0,1,.746,1.1q.352.586.664,1.246t.584,1.393q.272.733.5,1.539t.406,1.741q.174.935.289,2t.173,2.257q.058,1.193.058,2.517-.009,1.138-.078,2.238t-.2,2.161q-.129,1.062-.318,2.087t-.44,2.014q-.25.989-.561,1.891t-.684,1.717A15.931,15.931,0,0,1,16.114,58a13.662,13.662,0,0,1-.935,1.372,8.464,8.464,0,0,1-1.06,1.141,6.911,6.911,0,0,1-1.186.852,6.4,6.4,0,0,1-1.313.561,6.879,6.879,0,0,1-1.443.267,6.764,6.764,0,0,1-1.383-.029,6.246,6.246,0,0,1-1.315-.312,6.607,6.607,0,0,1-1.245-.6A7.908,7.908,0,0,1,5.06,60.366ZM79.307,55.89a2.726,2.726,0,0,1-.633-.023,2.56,2.56,0,0,1-.6-.17,2.853,2.853,0,0,1-.562-.318,3.655,3.655,0,0,1-.526-.466,3.908,3.908,0,0,1-.48-.639,6.3,6.3,0,0,1-.424-.838,10.08,10.08,0,0,1-.367-1.037q-.17-.569-.31-1.237T75.161,49.7q-.106-.8-.177-1.721T74.878,46q-.035-1.053-.035-2.232V28.7l-2.254-.023.026-8.012,2.228.079.385-9.693,3.05.271v9.543l3.288.116.025,7.789-3.312-.034V43.778q0,.592.024,1.092t.071.907a6.983,6.983,0,0,0,.118.721,3.154,3.154,0,0,0,.165.536,1.719,1.719,0,0,0,.221.385,1.2,1.2,0,0,0,.287.268,1.114,1.114,0,0,0,.352.152,1.445,1.445,0,0,0,.416.035l1.611-.082v7.927ZM62.524,57.173V20.306l3.3.116.353,6.74q.122-.595.26-1.143t.292-1.051q.154-.5.323-.958t.355-.865q.185-.409.384-.772t.409-.68a7.073,7.073,0,0,1,.435-.588,5.619,5.619,0,0,1,.461-.5,3.622,3.622,0,0,1,.485-.39,2.9,2.9,0,0,1,.508-.272,2.575,2.575,0,0,1,.532-.154,2.621,2.621,0,0,1,.554-.037V29.942l-1.215-.008a2.414,2.414,0,0,0-.391.029,2.336,2.336,0,0,0-.377.092,2.452,2.452,0,0,0-.363.155,2.772,2.772,0,0,0-.348.218,2.679,2.679,0,0,0-.331.288,3.472,3.472,0,0,0-.31.366,4.65,4.65,0,0,0-.288.443q-.139.241-.267.52a6.52,6.52,0,0,0-.241.611q-.113.332-.211.716t-.181.82q-.083.436-.151.925t-.119,1.04q-.051.552-.085,1.167t-.051,1.294q-.017.679-.017,1.42V56.89ZM30.87,59.595a4.189,4.189,0,0,1-.844-.018,3.808,3.808,0,0,1-.8-.188,3.959,3.959,0,0,1-.75-.36,4.667,4.667,0,0,1-.7-.532,4.577,4.577,0,0,1-.641-.733,6.875,6.875,0,0,1-.567-.964,10.561,10.561,0,0,1-.491-1.2q-.227-.656-.415-1.427t-.331-1.692q-.142-.921-.237-1.99t-.142-2.287q-.047-1.218-.047-2.583V28.187l-3.022-.031.035-9.283,2.987.105.516-11.212,4.077.349V19.14l4.381.155.033,8.984L29.5,28.234V45.616q0,.684.031,1.261t.094,1.047a7.045,7.045,0,0,0,.157.832,3.269,3.269,0,0,0,.22.618,1.922,1.922,0,0,0,.3.442,1.513,1.513,0,0,0,.382.307,1.6,1.6,0,0,0,.469.172,2.211,2.211,0,0,0,.555.037l2.144-.109v9.143Zm10-15.035a5.775,5.775,0,0,1,.326-.691,3.708,3.708,0,0,1,.359-.533,2.262,2.262,0,0,1,.382-.374,1.394,1.394,0,0,1,.394-.214.1.1,0,0,1,.114.05.505.505,0,0,1,.073.191,1.05,1.05,0,0,1,.017.261.843.843,0,0,1-.053.259l-.006.013a3.425,3.425,0,0,0-.152.5c-.045.191-.084.4-.118.633s-.064.476-.09.733-.048.525-.067.8a8.652,8.652,0,0,0,.053,1.74,5.783,5.783,0,0,0,.354,1.4,2.069,2.069,0,0,0,.568.848.63.63,0,0,0,.7.095,2.4,2.4,0,0,0,.317-.184,2.073,2.073,0,0,0,.291-.242,1.963,1.963,0,0,0,.252-.31,2.1,2.1,0,0,0,.2-.387.22.22,0,0,1,.1-.136.091.091,0,0,1,.1.038.434.434,0,0,1,.079.176,1.032,1.032,0,0,1,.025.28c-.016.327-.042.653-.079.973s-.084.635-.142.942-.127.6-.206.891a8.53,8.53,0,0,1-.272.821,3.69,3.69,0,0,1-1.119,1.5,6.087,6.087,0,0,1-1.532.9,8.8,8.8,0,0,1-1.36.436c-.359.084-.588.114-.588.114s.006-.565.03-1.452.067-2.095.14-3.38.177-2.647.325-3.842A12.924,12.924,0,0,1,40.87,44.56Z" transform="translate(24.808)" fill="rgba(255,255,255,0.8)"/>
  <path id="logo_doodle_fff256x58-2" data-name="logo_doodle_fff256x58" d="M8.056,46.013,0,0,6.211.219l5.359,34.1L16.75.591,22.4.79l-7.455,44.7Z" transform="translate(0 17.224)" fill="rgba(255,255,255,0.3)"/>
</svg>
